<?xml version="1.0" encoding="utf-8"?>
<!-- Generator: Adobe Illustrator 23.0.1, SVG Export Plug-In . SVG Version: 6.00 Build 0)  -->
<svg version="1.1" id="Layer_1" xmlns="http://www.w3.org/2000/svg" xmlns:xlink="http://www.w3.org/1999/xlink" x="0px" y="0px"
	 viewBox="0 0 512 512" style="enable-background:new 0 0 512 512;" xml:space="preserve">
<style type="text/css">
	.st0{fill:#F44336;}
	.st1{fill:#00B060;}
	.st2{fill:#FFC107;}
	.st3{fill:#2196F3;}
	.st4{fill:url(#SVGID_1_);}
	.st5{fill:url(#SVGID_2_);}
	.st6{fill:url(#SVGID_3_);}
	.st7{fill:url(#XMLID_2_);}
</style>
<g>
	<path class="st0" d="M172.7,256c0-46,37.3-83.3,83.3-83.3c12.8,0,24.9,3.1,35.7,8.3h149.6C411.6,107.7,339.9,56,256,56
		c-64.2,0-121.2,30.4-157.8,77.4L173.4,263C173.2,260.7,172.7,258.4,172.7,256z"/>
	<path class="st1" d="M256,339.3c-43.6,0-79-33.6-82.6-76.3L98.2,133.4C71.9,167.3,56,209.7,56,256c0,101.2,75.2,184.6,172.8,197.9
		L303,324.8C289.6,333.9,273.4,339.3,256,339.3z"/>
	<path class="st2" d="M291.7,181c28.1,13.4,47.6,41.8,47.6,75c0,28.6-14.4,53.8-36.3,68.8l-74.2,129.2c8.9,1.2,17.9,2.1,27.2,2.1
		c110.5,0,200-89.5,200-200c0-26.5-5.3-51.8-14.7-75H291.7z"/>
	<circle id="XMLID_1302_" class="st3" cx="256" cy="256" r="66.7"/>
	
		<linearGradient id="SVGID_1_" gradientUnits="userSpaceOnUse" x1="329.1245" y1="368.2903" x2="403.9256" y2="293.4892" gradientTransform="matrix(1 0 0 -1 0 511.8898)">
		<stop  offset="0" style="stop-color:#000000;stop-opacity:0.1"/>
		<stop  offset="1" style="stop-color:#000000;stop-opacity:0"/>
	</linearGradient>
	<path class="st4" d="M330.3,218.7L441.3,181H291.7C308.4,189,321.9,202.3,330.3,218.7z"/>
	
		<linearGradient id="SVGID_2_" gradientUnits="userSpaceOnUse" x1="87.402" y1="367.9039" x2="189.5822" y2="265.7236" gradientTransform="matrix(1 0 0 -1 0 511.8898)">
		<stop  offset="0" style="stop-color:#000000;stop-opacity:0.1"/>
		<stop  offset="1" style="stop-color:#000000;stop-opacity:0"/>
	</linearGradient>
	<path class="st5" d="M186.6,210.3L98.4,133l74.8,129.6C171.7,244.1,176.5,225.8,186.6,210.3z"/>
	
		<linearGradient id="SVGID_3_" gradientUnits="userSpaceOnUse" x1="233.3145" y1="155.0471" x2="279.379" y2="108.9828" gradientTransform="matrix(1 0 0 -1 0 511.8898)">
		<stop  offset="0" style="stop-color:#000000;stop-opacity:0.1"/>
		<stop  offset="1" style="stop-color:#000000;stop-opacity:0"/>
	</linearGradient>
	<path class="st6" d="M251.2,339l-22.9,115l74.8-129.6C287.9,334.9,269.6,339.9,251.2,339z"/>
	
		<linearGradient id="XMLID_2_" gradientUnits="userSpaceOnUse" x1="74.6952" y1="340.4336" x2="437.3048" y2="171.3459" gradientTransform="matrix(1 0 0 -1 0 511.8898)">
		<stop  offset="0" style="stop-color:#FFFFFF;stop-opacity:0.2"/>
		<stop  offset="1" style="stop-color:#FFFFFF;stop-opacity:0"/>
	</linearGradient>
	<circle id="XMLID_1304_" class="st7" cx="256" cy="256" r="200"/>
</g>
</svg>
